<svg width="800" height="437" viewBox="0 0 800 437" fill="none" xmlns="http://www.w3.org/2000/svg">
<rect width="800" height="437" fill="white"/>
<rect x="38.5" y="45.5" width="105.122" height="18" rx="4.5" stroke="black"/>
<path d="M61.6784 52.126H61.6234L61.0184 53.369L59.3354 56.438L57.6524 53.369L57.0474 52.126H56.9924V58H55.8044V50.322H57.2784L59.3354 54.227H59.4014L61.4584 50.322H62.8664V58H61.6784V52.126ZM66.9194 58.132C66.5087 58.132 66.142 58.0623 65.8194 57.923C65.4967 57.7837 65.2217 57.5857 64.9944 57.329C64.767 57.065 64.591 56.7497 64.4664 56.383C64.349 56.009 64.2904 55.5947 64.2904 55.14C64.2904 54.6853 64.349 54.2747 64.4664 53.908C64.591 53.534 64.767 53.2187 64.9944 52.962C65.2217 52.698 65.4967 52.4963 65.8194 52.357C66.142 52.2177 66.5087 52.148 66.9194 52.148C67.3374 52.148 67.704 52.2213 68.0194 52.368C68.342 52.5147 68.6097 52.72 68.8224 52.984C69.035 53.2407 69.1927 53.5413 69.2954 53.886C69.4054 54.2307 69.4604 54.601 69.4604 54.997V55.448H65.5334V55.635C65.5334 56.075 65.6617 56.438 65.9184 56.724C66.1824 57.0027 66.5564 57.142 67.0404 57.142C67.3924 57.142 67.6894 57.065 67.9314 56.911C68.1734 56.757 68.3787 56.548 68.5474 56.284L69.2514 56.977C69.0387 57.329 68.7307 57.6113 68.3274 57.824C67.924 58.0293 67.4547 58.132 66.9194 58.132ZM66.9194 53.083C66.714 53.083 66.5234 53.1197 66.3474 53.193C66.1787 53.2663 66.032 53.369 65.9074 53.501C65.79 53.633 65.6984 53.7907 65.6324 53.974C65.5664 54.1573 65.5334 54.359 65.5334 54.579V54.656H68.1954V54.546C68.1954 54.106 68.0817 53.754 67.8544 53.49C67.627 53.2187 67.3154 53.083 66.9194 53.083ZM70.7877 49.86H71.9867V53.226H72.0417C72.1664 52.918 72.3534 52.6613 72.6027 52.456C72.8594 52.2507 73.2077 52.148 73.6477 52.148C74.2344 52.148 74.689 52.3423 75.0117 52.731C75.3417 53.1123 75.5067 53.6587 75.5067 54.37V58H74.3077V54.513C74.3077 53.6257 73.9484 53.182 73.2297 53.182C73.0757 53.182 72.9217 53.204 72.7677 53.248C72.621 53.2847 72.489 53.3433 72.3717 53.424C72.2544 53.5047 72.159 53.6073 72.0857 53.732C72.0197 53.8567 71.9867 53.9997 71.9867 54.161V58H70.7877V49.86ZM77.1685 58V52.28H78.3675V53.38H78.4225C78.5032 53.0867 78.6719 52.83 78.9285 52.61C79.1852 52.39 79.5409 52.28 79.9955 52.28H80.3145V53.435H79.8415C79.3649 53.435 78.9982 53.512 78.7415 53.666C78.4922 53.82 78.3675 54.0473 78.3675 54.348V58H77.1685ZM88.1701 58C87.8548 58 87.6128 57.912 87.4441 57.736C87.2754 57.5527 87.1728 57.3217 87.1361 57.043H87.0811C86.9711 57.4023 86.7694 57.6737 86.4761 57.857C86.1828 58.0403 85.8271 58.132 85.4091 58.132C84.8151 58.132 84.3568 57.978 84.0341 57.67C83.7188 57.362 83.5611 56.9477 83.5611 56.427C83.5611 55.855 83.7664 55.426 84.1771 55.14C84.5951 54.854 85.2038 54.711 86.0031 54.711H87.0371V54.227C87.0371 53.875 86.9418 53.6037 86.7511 53.413C86.5604 53.2223 86.2634 53.127 85.8601 53.127C85.5228 53.127 85.2478 53.2003 85.0351 53.347C84.8224 53.4937 84.6428 53.6807 84.4961 53.908L83.7811 53.259C83.9718 52.9363 84.2394 52.6723 84.5841 52.467C84.9288 52.2543 85.3798 52.148 85.9371 52.148C86.6778 52.148 87.2461 52.3203 87.6421 52.665C88.0381 53.0097 88.2361 53.5047 88.2361 54.15V57.021H88.8411V58H88.1701ZM85.7501 57.219C86.1241 57.219 86.4321 57.1383 86.6741 56.977C86.9161 56.8083 87.0371 56.5847 87.0371 56.306V55.481H86.0251C85.1964 55.481 84.7821 55.7377 84.7821 56.251V56.449C84.7821 56.7057 84.8664 56.9 85.0351 57.032C85.2111 57.1567 85.4494 57.219 85.7501 57.219ZM90.0162 58V52.28H91.2152V53.226H91.2702C91.3949 52.918 91.5819 52.6613 91.8312 52.456C92.0879 52.2507 92.4362 52.148 92.8762 52.148C93.4629 52.148 93.9175 52.3423 94.2402 52.731C94.5702 53.1123 94.7352 53.6587 94.7352 54.37V58H93.5362V54.524C93.5362 53.6293 93.1769 53.182 92.4582 53.182C92.3042 53.182 92.1502 53.204 91.9962 53.248C91.8495 53.2847 91.7175 53.3433 91.6002 53.424C91.4829 53.5047 91.3875 53.6073 91.3142 53.732C91.2482 53.8567 91.2152 54.0033 91.2152 54.172V58H90.0162ZM95.9351 58V57.032L99.0041 53.259H96.0341V52.28H100.423V53.204L97.3101 57.021H100.5V58H95.9351ZM103.883 58.132C103.473 58.132 103.106 58.0623 102.783 57.923C102.461 57.7837 102.186 57.5857 101.958 57.329C101.731 57.065 101.555 56.7497 101.43 56.383C101.313 56.009 101.254 55.5947 101.254 55.14C101.254 54.6853 101.313 54.2747 101.43 53.908C101.555 53.534 101.731 53.2187 101.958 52.962C102.186 52.698 102.461 52.4963 102.783 52.357C103.106 52.2177 103.473 52.148 103.883 52.148C104.301 52.148 104.668 52.2213 104.983 52.368C105.306 52.5147 105.574 52.72 105.786 52.984C105.999 53.2407 106.157 53.5413 106.259 53.886C106.369 54.2307 106.424 54.601 106.424 54.997V55.448H102.497V55.635C102.497 56.075 102.626 56.438 102.882 56.724C103.146 57.0027 103.52 57.142 104.004 57.142C104.356 57.142 104.653 57.065 104.895 56.911C105.137 56.757 105.343 56.548 105.511 56.284L106.215 56.977C106.003 57.329 105.695 57.6113 105.291 57.824C104.888 58.0293 104.419 58.132 103.883 58.132ZM103.883 53.083C103.678 53.083 103.487 53.1197 103.311 53.193C103.143 53.2663 102.996 53.369 102.871 53.501C102.754 53.633 102.662 53.7907 102.596 53.974C102.53 54.1573 102.497 54.359 102.497 54.579V54.656H105.159V54.546C105.159 54.106 105.046 53.754 104.818 53.49C104.591 53.2187 104.279 53.083 103.883 53.083ZM108.357 51.257C108.107 51.257 107.924 51.1983 107.807 51.081C107.697 50.9637 107.642 50.8133 107.642 50.63V50.443C107.642 50.2597 107.697 50.1093 107.807 49.992C107.924 49.8747 108.107 49.816 108.357 49.816C108.606 49.816 108.786 49.8747 108.896 49.992C109.006 50.1093 109.061 50.2597 109.061 50.443V50.63C109.061 50.8133 109.006 50.9637 108.896 51.081C108.786 51.1983 108.606 51.257 108.357 51.257ZM107.752 52.28H108.951V58H107.752V52.28ZM115.679 58.539C115.679 59.133 115.451 59.5803 114.997 59.881C114.542 60.1817 113.801 60.332 112.775 60.332C112.305 60.332 111.906 60.299 111.576 60.233C111.253 60.1743 110.985 60.0863 110.773 59.969C110.567 59.8517 110.417 59.7087 110.322 59.54C110.226 59.3713 110.179 59.177 110.179 58.957C110.179 58.6417 110.263 58.396 110.432 58.22C110.608 58.044 110.85 57.923 111.158 57.857V57.736C110.725 57.5967 110.509 57.3033 110.509 56.856C110.509 56.5627 110.608 56.339 110.806 56.185C111.004 56.0237 111.242 55.91 111.521 55.844V55.8C111.183 55.6387 110.923 55.415 110.74 55.129C110.564 54.8357 110.476 54.4947 110.476 54.106C110.476 53.5193 110.67 53.0463 111.059 52.687C111.455 52.3277 112.019 52.148 112.753 52.148C113.156 52.148 113.501 52.2067 113.787 52.324V52.17C113.787 51.9133 113.845 51.7153 113.963 51.576C114.087 51.4293 114.278 51.356 114.535 51.356H115.415V52.324H114.249V52.555C114.505 52.7237 114.703 52.9437 114.843 53.215C114.982 53.479 115.052 53.776 115.052 54.106C115.052 54.6853 114.854 55.1547 114.458 55.514C114.062 55.866 113.497 56.042 112.764 56.042C112.485 56.042 112.236 56.0127 112.016 55.954C111.869 56.0053 111.741 56.0787 111.631 56.174C111.521 56.262 111.466 56.3793 111.466 56.526C111.466 56.68 111.535 56.79 111.675 56.856C111.814 56.922 112.012 56.955 112.269 56.955H113.677C114.381 56.955 114.89 57.098 115.206 57.384C115.521 57.6627 115.679 58.0477 115.679 58.539ZM114.557 58.671C114.557 58.473 114.48 58.3153 114.326 58.198C114.179 58.0807 113.908 58.022 113.512 58.022H111.576C111.312 58.176 111.18 58.396 111.18 58.682C111.18 58.9167 111.271 59.1037 111.455 59.243C111.645 59.3897 111.964 59.463 112.412 59.463H113.16C114.091 59.463 114.557 59.199 114.557 58.671ZM112.764 55.173C113.116 55.173 113.387 55.096 113.578 54.942C113.776 54.7807 113.875 54.535 113.875 54.205V53.985C113.875 53.655 113.776 53.413 113.578 53.259C113.387 53.0977 113.116 53.017 112.764 53.017C112.412 53.017 112.137 53.0977 111.939 53.259C111.748 53.413 111.653 53.655 111.653 53.985V54.205C111.653 54.535 111.748 54.7807 111.939 54.942C112.137 55.096 112.412 55.173 112.764 55.173ZM118.75 58.132C118.34 58.132 117.973 58.0623 117.65 57.923C117.328 57.7837 117.053 57.5857 116.825 57.329C116.598 57.065 116.422 56.7497 116.297 56.383C116.18 56.009 116.121 55.5947 116.121 55.14C116.121 54.6853 116.18 54.2747 116.297 53.908C116.422 53.534 116.598 53.2187 116.825 52.962C117.053 52.698 117.328 52.4963 117.65 52.357C117.973 52.2177 118.34 52.148 118.75 52.148C119.168 52.148 119.535 52.2213 119.85 52.368C120.173 52.5147 120.441 52.72 120.653 52.984C120.866 53.2407 121.024 53.5413 121.126 53.886C121.236 54.2307 121.291 54.601 121.291 54.997V55.448H117.364V55.635C117.364 56.075 117.493 56.438 117.749 56.724C118.013 57.0027 118.387 57.142 118.871 57.142C119.223 57.142 119.52 57.065 119.762 56.911C120.004 56.757 120.21 56.548 120.378 56.284L121.082 56.977C120.87 57.329 120.562 57.6113 120.158 57.824C119.755 58.0293 119.286 58.132 118.75 58.132ZM118.75 53.083C118.545 53.083 118.354 53.1197 118.178 53.193C118.01 53.2663 117.863 53.369 117.738 53.501C117.621 53.633 117.529 53.7907 117.463 53.974C117.397 54.1573 117.364 54.359 117.364 54.579V54.656H120.026V54.546C120.026 54.106 119.913 53.754 119.685 53.49C119.458 53.2187 119.146 53.083 118.75 53.083ZM122.619 58V52.28H123.818V53.226H123.873C123.997 52.918 124.184 52.6613 124.434 52.456C124.69 52.2507 125.039 52.148 125.479 52.148C126.065 52.148 126.52 52.3423 126.843 52.731C127.173 53.1123 127.338 53.6587 127.338 54.37V58H126.139V54.524C126.139 53.6293 125.779 53.182 125.061 53.182C124.907 53.182 124.753 53.204 124.599 53.248C124.452 53.2847 124.32 53.3433 124.203 53.424C124.085 53.5047 123.99 53.6073 123.917 53.732C123.851 53.8567 123.818 54.0033 123.818 54.172V58H122.619Z" fill="black"/>
<rect width="151" height="29" rx="2" transform="matrix(1 0 0 -1 38 113)" fill="#666666"/>
<path d="M72.5393 97.592H72.4793L71.8193 98.948L69.9833 102.296L68.1473 98.948L67.4873 97.592H67.4273V104H66.1313V95.624H67.7393L69.9833 99.884H70.0553L72.2993 95.624H73.8353V104H72.5393V97.592ZM76.0647 104V95.624H81.4287V96.824H77.4207V99.152H81.0567V100.352H77.4207V102.8H81.4287V104H76.0647ZM88.486 100.352H84.694V104H83.338V95.624H84.694V99.152H88.486V95.624H89.842V104H88.486V100.352ZM93.4204 104H92.0644V95.624H95.6764C96.4284 95.624 97.0204 95.852 97.4524 96.308C97.8844 96.756 98.1004 97.368 98.1004 98.144C98.1004 98.744 97.9604 99.244 97.6804 99.644C97.4084 100.036 97.0044 100.312 96.4684 100.472L98.2804 104H96.7684L95.0884 100.616H93.4204V104ZM95.5804 99.476C95.9244 99.476 96.1924 99.388 96.3844 99.212C96.5764 99.028 96.6724 98.768 96.6724 98.432V97.856C96.6724 97.52 96.5764 97.264 96.3844 97.088C96.1924 96.904 95.9244 96.812 95.5804 96.812H93.4204V99.476H95.5804ZM108.316 104L107.56 101.732H104.428L103.696 104H102.316L105.172 95.624H106.876L109.732 104H108.316ZM106.024 96.872H105.964L104.752 100.568H107.224L106.024 96.872ZM113.445 99.368L112.521 97.592H112.485V104H111.189V95.624H112.701L115.437 100.256L116.361 102.032H116.397V95.624H117.693V104H116.181L113.445 99.368ZM125.531 104H119.327V102.788L123.875 96.824H119.567V95.624H125.399V96.836L120.851 102.8H125.531V104ZM127.165 104V95.624H132.529V96.824H128.521V99.152H132.157V100.352H128.521V102.8H132.529V104H127.165ZM134.078 104V102.896H135.218V96.728H134.078V95.624H137.726V96.728H136.574V102.896H137.726V104H134.078ZM144.979 102.728H144.931C144.843 103.136 144.603 103.476 144.211 103.748C143.827 104.012 143.315 104.144 142.675 104.144C142.179 104.144 141.719 104.052 141.295 103.868C140.871 103.676 140.503 103.4 140.191 103.04C139.887 102.672 139.647 102.22 139.471 101.684C139.303 101.14 139.219 100.516 139.219 99.812C139.219 99.116 139.307 98.5 139.483 97.964C139.659 97.42 139.907 96.964 140.227 96.596C140.547 96.228 140.931 95.952 141.379 95.768C141.827 95.576 142.327 95.48 142.879 95.48C143.631 95.48 144.267 95.648 144.787 95.984C145.307 96.312 145.711 96.772 145.999 97.364L144.895 98.012C144.735 97.62 144.487 97.304 144.151 97.064C143.815 96.816 143.391 96.692 142.879 96.692C142.215 96.692 141.679 96.904 141.271 97.328C140.871 97.752 140.671 98.352 140.671 99.128V100.496C140.671 101.272 140.871 101.872 141.271 102.296C141.679 102.72 142.215 102.932 142.879 102.932C143.143 102.932 143.395 102.9 143.635 102.836C143.875 102.764 144.083 102.664 144.259 102.536C144.443 102.4 144.587 102.236 144.691 102.044C144.803 101.844 144.859 101.612 144.859 101.348V100.7H143.131V99.536H146.167V104H144.979V102.728ZM148.212 104V95.624H153.576V96.824H149.568V99.152H153.204V100.352H149.568V102.8H153.576V104H148.212ZM157.741 99.368L156.817 97.592H156.781V104H155.485V95.624H156.997L159.733 100.256L160.657 102.032H160.693V95.624H161.989V104H160.477L157.741 99.368Z" fill="white"/>
</svg>
