<svg width="800" height="437" viewBox="0 0 800 437" fill="none" xmlns="http://www.w3.org/2000/svg">
<rect width="800" height="437" fill="white"/>
<g filter="url(#filter0_d)">
<path fill-rule="evenodd" clip-rule="evenodd" d="M53 46H39C37.9 46 37 46.9 37 48V62C37 63.1 37.9 64 39 64H53C54.1 64 55 63.1 55 62V48C55 46.9 54.1 46 53 46ZM44 60L39 55.1923L40.4 53.8462L44 57.3077L51.6 50L53 51.3462L44 60Z" fill="#F2A20C"/>
</g>
<g filter="url(#filter1_d)">
<path d="M103.984 258.016H99.0156V250H96.0156L106 241L115.984 250H112.984V258.016H108.016V252.016H103.984V258.016Z" fill="#666666"/>
</g>
<g filter="url(#filter2_d)">
<path d="M51.645 122.35C50.195 120.9 48.205 120 45.995 120C41.575 120 38.005 123.58 38.005 128C38.005 132.42 41.575 136 45.995 136C49.725 136 52.835 133.45 53.725 130H51.645C50.825 132.33 48.605 134 45.995 134C42.685 134 39.995 131.31 39.995 128C39.995 124.69 42.685 122 45.995 122C47.655 122 49.135 122.69 50.215 123.78L46.995 127H53.995V120L51.645 122.35Z" fill="#666666"/>
</g>
<g filter="url(#filter3_d)">
<path fill-rule="evenodd" clip-rule="evenodd" d="M37 208C37 202.48 41.48 198 47 198C52.52 198 57 202.48 57 208C57 213.52 52.52 218 47 218C41.48 218 37 213.52 37 208ZM48 212V214H46V212H48ZM47 216C42.59 216 39 212.41 39 208C39 203.59 42.59 200 47 200C51.41 200 55 203.59 55 208C55 212.41 51.41 216 47 216ZM43 206C43 203.79 44.79 202 47 202C49.21 202 51 203.79 51 206C51 207.283 50.21 207.973 49.4408 208.646C48.711 209.283 48 209.905 48 211H46C46 209.179 46.9421 208.457 47.7704 207.822C48.4202 207.324 49 206.879 49 206C49 204.9 48.1 204 47 204C45.9 204 45 204.9 45 206H43Z" fill="#666666"/>
</g>
<g filter="url(#filter4_d)">
<path opacity="0.54" fill-rule="evenodd" clip-rule="evenodd" d="M110 48V62H96V48H110ZM110 46H96C94.9 46 94 46.9 94 48V62C94 63.1 94.9 64 96 64H110C111.1 64 112 63.1 112 62V48C112 46.9 111.1 46 110 46Z" fill="black"/>
</g>
<path d="M96.6494 103.13L98.4294 104.9L108.319 95L98.4194 85.1L96.6494 86.87L104.779 95L96.6494 103.13Z" fill="black" fill-opacity="0.36"/>
<path d="M108.835 119.87L107.055 118.1L97.165 128L107.065 137.9L108.835 136.13L100.705 128L108.835 119.87Z" fill="black" fill-opacity="0.36"/>
<path fill-rule="evenodd" clip-rule="evenodd" d="M47 160.915C48.09 159.635 49.76 158.825 51.5 158.825C54.58 158.825 57 161.245 57 164.325C57 168.102 53.6056 171.18 48.4627 175.844L48.45 175.855L47 177.175L45.55 175.865L45.5105 175.829C40.3826 171.169 37 168.095 37 164.325C37 161.245 39.42 158.825 42.5 158.825C44.24 158.825 45.91 159.635 47 160.915ZM47 174.475L47.1 174.375C51.86 170.065 55 167.215 55 164.325C55 162.325 53.5 160.825 51.5 160.825C49.96 160.825 48.46 161.815 47.94 163.185H46.07C45.54 161.815 44.04 160.825 42.5 160.825C40.5 160.825 39 162.325 39 164.325C39 167.215 42.14 170.065 46.9 174.375L47 174.475Z" fill="#666666"/>
<path d="M159.839 100.109L151 91.1094L153.072 89L159.839 95.8906L166.607 89L168.679 91.1094L159.839 100.109Z" fill="#666666"/>
<path d="M43.3281 92.7031C44.2031 93.5781 45.2656 94.0156 46.5156 94.0156C47.7656 94.0156 48.8281 93.5781 49.7031 92.7031C50.5781 91.8281 51.0156 90.7656 51.0156 89.5156C51.0156 88.2656 50.5781 87.2031 49.7031 86.3281C48.8281 85.4531 47.7656 85.0156 46.5156 85.0156C45.2656 85.0156 44.2031 85.4531 43.3281 86.3281C42.4531 87.2031 42.0156 88.2656 42.0156 89.5156C42.0156 90.7656 42.4531 91.8281 43.3281 92.7031ZM52.5156 94.0156L57.4844 98.9844L55.9844 100.484L51.0156 95.5156V94.7188L50.7344 94.4375C49.5469 95.4688 48.1406 95.9844 46.5156 95.9844C44.7031 95.9844 43.1562 95.3594 41.875 94.1094C40.625 92.8594 40 91.3281 40 89.5156C40 87.7031 40.625 86.1719 41.875 84.9219C43.1562 83.6406 44.7031 83 46.5156 83C48.3281 83 49.8594 83.6406 51.1094 84.9219C52.3594 86.1719 52.9844 87.7031 52.9844 89.5156C52.9844 91.1406 52.4688 92.5469 51.4375 93.7344L51.7188 94.0156H52.5156Z" fill="black" fill-opacity="0.8"/>
<path d="M165 202.715V214.287C165 215.057 164.166 215.538 163.5 215.153L153.49 209.367C152.824 208.982 152.824 208.02 153.49 207.635L163.5 201.849C164.166 201.464 165 201.945 165 202.715Z" stroke="black" stroke-width="2"/>
<path d="M167 128C167 131.866 163.866 135 160 135C156.134 135 153 131.866 153 128C153 124.134 156.134 121 160 121C163.866 121 167 124.134 167 128Z" stroke="black" stroke-width="2"/>
<path d="M154 174V162C154 161.448 154.448 161 155 161H167C167.552 161 168 161.448 168 162V174C168 174.552 167.552 175 167 175H155C154.448 175 154 174.552 154 174Z" stroke="black" stroke-width="2"/>
<path d="M106.5 181.938L104.688 180.288C98.25 174.45 94 170.6 94 165.875C94 162.025 97.025 159 100.875 159C103.05 159 105.137 160.012 106.5 161.612C107.863 160.012 109.95 159 112.125 159C115.975 159 119 162.025 119 165.875C119 170.6 114.75 174.45 108.312 180.3L106.5 181.938Z" fill="black" fill-opacity="0.54"/>
<path fill-rule="evenodd" clip-rule="evenodd" d="M117 297H97C93.1 297 90 293.9 90 290C90 286.1 93.1 283 97 283H117C120.9 283 124 286.1 124 290C124 293.9 120.9 297 117 297Z" fill="black" fill-opacity="0.38"/>
<g filter="url(#filter5_ddd)">
<path fill-rule="evenodd" clip-rule="evenodd" d="M98 300C103.523 300 108 295.523 108 290C108 284.477 103.523 280 98 280C92.4772 280 88 284.477 88 290C88 295.523 92.4772 300 98 300Z" fill="#FAFAFA"/>
</g>
<path fill-rule="evenodd" clip-rule="evenodd" d="M54.5022 288C54.5022 288.34 54.4722 288.66 54.4322 288.98L56.5422 290.63C56.7322 290.78 56.7822 291.05 56.6622 291.27L54.6622 294.73C54.5722 294.89 54.4022 294.98 54.2322 294.98C54.1722 294.98 54.1122 294.97 54.0522 294.95L51.5622 293.95C51.0422 294.34 50.4822 294.68 49.8722 294.93L49.4922 297.58C49.4622 297.82 49.2522 298 49.0022 298H45.0022C44.7522 298 44.5422 297.82 44.5122 297.58L44.1322 294.93C43.5222 294.68 42.9622 294.35 42.4422 293.95L39.9522 294.95C39.9022 294.97 39.8422 294.98 39.7822 294.98C39.6022 294.98 39.4322 294.89 39.3422 294.73L37.3422 291.27C37.2222 291.05 37.2722 290.78 37.4622 290.63L39.5722 288.98C39.5322 288.66 39.5022 288.33 39.5022 288C39.5022 287.67 39.5322 287.34 39.5722 287.02L37.4622 285.37C37.2722 285.22 37.2122 284.95 37.3422 284.73L39.3422 281.27C39.4322 281.11 39.6022 281.02 39.7722 281.02C39.8322 281.02 39.8922 281.03 39.9522 281.05L42.4422 282.05C42.9622 281.66 43.5222 281.32 44.1322 281.07L44.5122 278.42C44.5422 278.18 44.7522 278 45.0022 278H49.0022C49.2522 278 49.4622 278.18 49.4922 278.42L49.8722 281.07C50.4822 281.32 51.0422 281.65 51.5622 282.05L54.0522 281.05C54.1022 281.03 54.1622 281.02 54.2222 281.02C54.4022 281.02 54.5722 281.11 54.6622 281.27L56.6622 284.73C56.7822 284.95 56.7322 285.22 56.5422 285.37L54.4322 287.02C54.4722 287.34 54.5022 287.66 54.5022 288ZM52.5022 288C52.5022 287.79 52.4922 287.58 52.4522 287.27L52.3122 286.14L53.2022 285.44L54.2722 284.59L53.5722 283.38L52.3022 283.89L51.2422 284.32L50.3322 283.62C49.9322 283.32 49.5322 283.09 49.1022 282.91L48.0422 282.48L47.8822 281.35L47.6922 280H46.3022L46.1022 281.35L45.9422 282.48L44.8822 282.91C44.4722 283.08 44.0622 283.32 43.6322 283.64L42.7322 284.32L41.6922 283.9L40.4222 283.39L39.7222 284.6L40.8022 285.44L41.6922 286.14L41.5522 287.27C41.5222 287.57 41.5022 287.8 41.5022 288C41.5022 288.2 41.5222 288.43 41.5522 288.74L41.6922 289.87L40.8022 290.57L39.7222 291.41L40.4222 292.62L41.6922 292.11L42.7522 291.68L43.6622 292.38C44.0622 292.68 44.4622 292.91 44.8922 293.09L45.9522 293.52L46.1122 294.65L46.3022 296H47.7022L47.9022 294.65L48.0622 293.52L49.1222 293.09C49.5322 292.92 49.9422 292.68 50.3722 292.36L51.2722 291.68L52.3122 292.1L53.5822 292.61L54.2822 291.4L53.2022 290.56L52.3122 289.86L52.4522 288.73C52.4822 288.43 52.5022 288.21 52.5022 288ZM47.0022 284C44.7922 284 43.0022 285.79 43.0022 288C43.0022 290.21 44.7922 292 47.0022 292C49.2122 292 51.0022 290.21 51.0022 288C51.0022 285.79 49.2122 284 47.0022 284ZM45.0022 288C45.0022 289.1 45.9022 290 47.0022 290C48.1022 290 49.0022 289.1 49.0022 288C49.0022 286.9 48.1022 286 47.0022 286C45.9022 286 45.0022 286.9 45.0022 288Z" fill="black" fill-opacity="0.54"/>
<path fill-rule="evenodd" clip-rule="evenodd" d="M47 238C41.48 238 37 242.48 37 248C37 253.52 41.48 258 47 258C52.52 258 57 253.52 57 248C57 242.48 52.52 238 47 238ZM46 255V253H48V255H46ZM49.17 248.17L50.07 247.25C50.64 246.68 51 245.88 51 245C51 242.79 49.21 241 47 241C44.79 241 43 242.79 43 245H45C45 243.9 45.9 243 47 243C48.1 243 49 243.9 49 245C49 245.55 48.78 246.05 48.41 246.41L47.17 247.67C46.45 248.4 46 249.4 46 250.5V251H48C48 249.5 48.45 248.9 49.17 248.17Z" fill="black" fill-opacity="0.54"/>
<path fill-rule="evenodd" clip-rule="evenodd" d="M151 49H169V51L151 51.01V49ZM169 54.01L151 54V56H169V54.01ZM151 59H163V61H151V59Z" fill="black" fill-opacity="0.76"/>
<path d="M205 49H223V51.0156H205V49ZM205 55.9844V54.0156H223V55.9844H205ZM205 61V58.9844H223V61H205Z" fill="#666666"/>
<path d="M214 118C206.82 118 201 123.82 201 131C201 135.026 203.254 138.148 205.703 141.009L214 150L222.297 141.009C224.746 138.148 227 135.026 227 131C227 123.82 221.18 118 214 118Z" fill="#444444"/>
<path d="M216.082 129H212.982L212.802 131.47H212.872C212.952 131.33 213.035 131.207 213.122 131.1C213.209 130.987 213.309 130.89 213.422 130.81C213.535 130.73 213.665 130.67 213.812 130.63C213.959 130.583 214.132 130.56 214.332 130.56C214.632 130.56 214.909 130.61 215.162 130.71C215.422 130.81 215.645 130.953 215.832 131.14C216.025 131.327 216.175 131.557 216.282 131.83C216.389 132.097 216.442 132.4 216.442 132.74C216.442 133.087 216.385 133.407 216.272 133.7C216.165 133.993 216.005 134.247 215.792 134.46C215.579 134.667 215.315 134.83 215.002 134.95C214.695 135.063 214.345 135.12 213.952 135.12C213.639 135.12 213.362 135.083 213.122 135.01C212.882 134.943 212.669 134.853 212.482 134.74C212.302 134.62 212.142 134.487 212.002 134.34C211.869 134.187 211.749 134.03 211.642 133.87L212.462 133.22C212.549 133.36 212.639 133.487 212.732 133.6C212.825 133.713 212.932 133.813 213.052 133.9C213.172 133.987 213.305 134.053 213.452 134.1C213.605 134.147 213.779 134.17 213.972 134.17C214.385 134.17 214.702 134.057 214.922 133.83C215.149 133.603 215.262 133.29 215.262 132.89V132.77C215.262 132.37 215.149 132.057 214.922 131.83C214.702 131.603 214.385 131.49 213.972 131.49C213.672 131.49 213.432 131.547 213.252 131.66C213.072 131.773 212.919 131.9 212.792 132.04L211.862 131.91L212.122 128.02H216.082V129Z" fill="white"/>
<rect x="203" y="94" width="112" height="2" fill="#9E9E9E"/>
<rect x="203" y="94" width="84" height="2" fill="#444444"/>
<circle cx="203" cy="95" r="1" fill="black"/>
<circle cx="315" cy="95" r="1" fill="black"/>
<circle cx="259" cy="95" r="1" fill="black"/>
<circle cx="231" cy="95" r="1" fill="black"/>
<circle cx="287" cy="95" r="1" fill="black"/>
<path d="M112.297 212.016H113.984C113.984 213.703 113.391 215.188 112.203 216.469C111.047 217.719 109.641 218.469 107.984 218.719V222H106.016V218.719C104.359 218.469 102.938 217.719 101.75 216.469C100.594 215.188 100.016 213.703 100.016 212.016H101.703C101.703 213.484 102.219 214.703 103.25 215.672C104.312 216.609 105.562 217.078 107 217.078C108.438 217.078 109.672 216.609 110.703 215.672C111.766 214.703 112.297 213.484 112.297 212.016ZM109.109 214.125C108.516 214.719 107.812 215.016 107 215.016C106.188 215.016 105.484 214.719 104.891 214.125C104.297 213.531 104 212.828 104 212.016V206.016C104 205.203 104.297 204.5 104.891 203.906C105.484 203.312 106.188 203.016 107 203.016C107.812 203.016 108.516 203.312 109.109 203.906C109.703 204.5 110 205.203 110 206.016V212.016C110 212.828 109.703 213.531 109.109 214.125Z" fill="#666666"/>
<path d="M259 56H261V54H259V56Z" fill="#666666"/>
<path d="M259 60H261V58H259V60Z" fill="#666666"/>
<path d="M259 52H261V50H259V52Z" fill="#666666"/>
<path d="M263 56H277V54H263V56Z" fill="#666666"/>
<path d="M263 60H277V58H263V60Z" fill="#666666"/>
<path d="M263 50V52H277V50H263Z" fill="#666666"/>
<path fill-rule="evenodd" clip-rule="evenodd" d="M316 46H324V56H316V46ZM334 46H326V52H334V46ZM322 54V48H318V54H322ZM332 50V48H328V50H332ZM332 56V62H328V56H332ZM322 62V60H318V62H322ZM334 54H326V64H334V54ZM316 58H324V64H316V58Z" fill="#666666"/>
<rect x="370.25" y="47.25" width="14.5" height="14.5" fill="#F2A20C" stroke="black" stroke-width="0.5"/>
<defs>
<filter id="filter0_d" x="30" y="43" width="32" height="32" filterUnits="userSpaceOnUse" color-interpolation-filters="sRGB">
<feFlood flood-opacity="0" result="BackgroundImageFix"/>
<feColorMatrix in="SourceAlpha" type="matrix" values="0 0 0 0 0 0 0 0 0 0 0 0 0 0 0 0 0 0 127 0"/>
<feOffset dy="4"/>
<feGaussianBlur stdDeviation="2"/>
<feColorMatrix type="matrix" values="0 0 0 0 0 0 0 0 0 0 0 0 0 0 0 0 0 0 0.1 0"/>
<feBlend mode="normal" in2="BackgroundImageFix" result="effect1_dropShadow"/>
<feBlend mode="normal" in="SourceGraphic" in2="effect1_dropShadow" result="shape"/>
</filter>
<filter id="filter1_d" x="58" y="228" width="96" height="56" filterUnits="userSpaceOnUse" color-interpolation-filters="sRGB">
<feFlood flood-opacity="0" result="BackgroundImageFix"/>
<feColorMatrix in="SourceAlpha" type="matrix" values="0 0 0 0 0 0 0 0 0 0 0 0 0 0 0 0 0 0 127 0"/>
<feOffset dy="4"/>
<feGaussianBlur stdDeviation="2"/>
<feColorMatrix type="matrix" values="0 0 0 0 0 0 0 0 0 0 0 0 0 0 0 0 0 0 0.1 0"/>
<feBlend mode="normal" in2="BackgroundImageFix" result="effect1_dropShadow"/>
<feBlend mode="normal" in="SourceGraphic" in2="effect1_dropShadow" result="shape"/>
</filter>
<filter id="filter2_d" x="30" y="116" width="32" height="32" filterUnits="userSpaceOnUse" color-interpolation-filters="sRGB">
<feFlood flood-opacity="0" result="BackgroundImageFix"/>
<feColorMatrix in="SourceAlpha" type="matrix" values="0 0 0 0 0 0 0 0 0 0 0 0 0 0 0 0 0 0 127 0"/>
<feOffset dy="4"/>
<feGaussianBlur stdDeviation="2"/>
<feColorMatrix type="matrix" values="0 0 0 0 0 0 0 0 0 0 0 0 0 0 0 0 0 0 0.1 0"/>
<feBlend mode="normal" in2="BackgroundImageFix" result="effect1_dropShadow"/>
<feBlend mode="normal" in="SourceGraphic" in2="effect1_dropShadow" result="shape"/>
</filter>
<filter id="filter3_d" x="31" y="196" width="32" height="32" filterUnits="userSpaceOnUse" color-interpolation-filters="sRGB">
<feFlood flood-opacity="0" result="BackgroundImageFix"/>
<feColorMatrix in="SourceAlpha" type="matrix" values="0 0 0 0 0 0 0 0 0 0 0 0 0 0 0 0 0 0 127 0"/>
<feOffset dy="4"/>
<feGaussianBlur stdDeviation="2"/>
<feColorMatrix type="matrix" values="0 0 0 0 0 0 0 0 0 0 0 0 0 0 0 0 0 0 0.1 0"/>
<feBlend mode="normal" in2="BackgroundImageFix" result="effect1_dropShadow"/>
<feBlend mode="normal" in="SourceGraphic" in2="effect1_dropShadow" result="shape"/>
</filter>
<filter id="filter4_d" x="87" y="43" width="32" height="32" filterUnits="userSpaceOnUse" color-interpolation-filters="sRGB">
<feFlood flood-opacity="0" result="BackgroundImageFix"/>
<feColorMatrix in="SourceAlpha" type="matrix" values="0 0 0 0 0 0 0 0 0 0 0 0 0 0 0 0 0 0 127 0"/>
<feOffset dy="4"/>
<feGaussianBlur stdDeviation="2"/>
<feColorMatrix type="matrix" values="0 0 0 0 0 0 0 0 0 0 0 0 0 0 0 0 0 0 0.1 0"/>
<feBlend mode="normal" in2="BackgroundImageFix" result="effect1_dropShadow"/>
<feBlend mode="normal" in="SourceGraphic" in2="effect1_dropShadow" result="shape"/>
</filter>
<filter id="filter5_ddd" x="85" y="278" width="26" height="26" filterUnits="userSpaceOnUse" color-interpolation-filters="sRGB">
<feFlood flood-opacity="0" result="BackgroundImageFix"/>
<feColorMatrix in="SourceAlpha" type="matrix" values="0 0 0 0 0 0 0 0 0 0 0 0 0 0 0 0 0 0 127 0"/>
<feOffset dy="1"/>
<feGaussianBlur stdDeviation="1.5"/>
<feColorMatrix type="matrix" values="0 0 0 0 0 0 0 0 0 0 0 0 0 0 0 0 0 0 0.2 0"/>
<feBlend mode="normal" in2="BackgroundImageFix" result="effect1_dropShadow"/>
<feColorMatrix in="SourceAlpha" type="matrix" values="0 0 0 0 0 0 0 0 0 0 0 0 0 0 0 0 0 0 127 0"/>
<feOffset dy="2"/>
<feGaussianBlur stdDeviation="1"/>
<feColorMatrix type="matrix" values="0 0 0 0 0 0 0 0 0 0 0 0 0 0 0 0 0 0 0.12 0"/>
<feBlend mode="normal" in2="effect1_dropShadow" result="effect2_dropShadow"/>
<feColorMatrix in="SourceAlpha" type="matrix" values="0 0 0 0 0 0 0 0 0 0 0 0 0 0 0 0 0 0 127 0"/>
<feOffset/>
<feGaussianBlur stdDeviation="1"/>
<feColorMatrix type="matrix" values="0 0 0 0 0 0 0 0 0 0 0 0 0 0 0 0 0 0 0.14 0"/>
<feBlend mode="normal" in2="effect2_dropShadow" result="effect3_dropShadow"/>
<feBlend mode="normal" in="SourceGraphic" in2="effect3_dropShadow" result="shape"/>
</filter>
</defs>
</svg>
