<svg width="800" height="437" viewBox="0 0 800 437" fill="none" xmlns="http://www.w3.org/2000/svg">
<rect width="800" height="437" fill="white"/>
<rect x="265" y="31" width="100" height="100" fill="#000222"/>
<path d="M265 31V30H264V31H265ZM365 31H366V30H365V31ZM365 131V132H366V131H365ZM265 131H264V132H265V131ZM265 32H365V30H265V32ZM364 31V131H366V31H364ZM365 130H265V132H365V130ZM266 131V31H264V131H266Z" fill="black"/>
<rect x="385" y="31" width="100" height="100" fill="#2F4659"/>
<path d="M385 31V30H384V31H385ZM485 31H486V30H485V31ZM485 131V132H486V131H485ZM385 131H384V132H385V131ZM385 32H485V30H385V32ZM484 31V131H486V31H484ZM485 130H385V132H485V130ZM386 131V31H384V131H386Z" fill="black"/>
<rect x="145" y="31" width="100" height="100" fill="#222222"/>
<path d="M145 31V30H144V31H145ZM245 31H246V30H245V31ZM245 131V132H246V131H245ZM145 131H144V132H145V131ZM145 32H245V30H145V32ZM244 31V131H246V31H244ZM245 130H145V132H245V130ZM146 131V31H144V131H146Z" fill="black"/>
<rect x="25" y="31" width="100" height="100" fill="#444444"/>
<path d="M25 31V30H24V31H25ZM125 31H126V30H125V31ZM125 131V132H126V131H125ZM25 131H24V132H25V131ZM25 32H125V30H25V32ZM124 31V131H126V31H124ZM125 130H25V132H125V130ZM26 131V31H24V131H26Z" fill="black"/>
<rect x="25" y="151" width="100" height="100" fill="#B4B4B4"/>
<path d="M25 151V150H24V151H25ZM125 151H126V150H125V151ZM125 251V252H126V251H125ZM25 251H24V252H25V251ZM25 152H125V150H25V152ZM124 151V251H126V151H124ZM125 250H25V252H125V250ZM26 251V151H24V251H26Z" fill="black"/>
<rect x="145" y="151" width="100" height="100" fill="#F2F2F2"/>
<path d="M145 151V150H144V151H145ZM245 151H246V150H245V151ZM245 251V252H246V251H245ZM145 251H144V252H145V251ZM145 152H245V150H145V152ZM244 151V251H246V151H244ZM245 250H145V252H245V250ZM146 251V151H144V251H146Z" fill="black"/>
<rect x="265" y="151" width="100" height="100" fill="white"/>
<path d="M265 151V150H264V151H265ZM365 151H366V150H365V151ZM365 251V252H366V251H365ZM265 251H264V252H265V251ZM265 152H365V150H265V152ZM364 151V251H366V151H364ZM365 250H265V252H365V250ZM266 251V151H264V251H266Z" fill="#000222"/>
<rect x="385" y="151" width="100" height="100" fill="#591202"/>
<path d="M385 151V150H384V151H385ZM485 151H486V150H485V151ZM485 251V252H486V251H485ZM385 251H384V252H385V251ZM385 152H485V150H385V152ZM484 151V251H486V151H484ZM485 250H385V252H485V250ZM386 251V151H384V251H386Z" fill="#000222"/>
<rect x="25" y="271" width="100" height="100" fill="#DDDDDD"/>
<path d="M25 271V270H24V271H25ZM125 271H126V270H125V271ZM125 371V372H126V371H125ZM25 371H24V372H25V371ZM25 272H125V270H25V272ZM124 271V371H126V271H124ZM125 370H25V372H125V370ZM26 371V271H24V371H26Z" fill="black"/>
<rect x="265" y="271" width="100" height="100" fill="#FFCC00"/>
<path d="M265 271V270H264V271H265ZM365 271H366V270H365V271ZM365 371V372H366V371H365ZM265 371H264V372H265V371ZM265 272H365V270H265V272ZM364 271V371H366V271H364ZM365 370H265V372H365V370ZM266 371V271H264V371H266Z" fill="black"/>
<rect x="385" y="271" width="100" height="100" fill="#F2A20C"/>
<path d="M385 271V270H384V271H385ZM485 271H486V270H485V271ZM485 371V372H486V371H485ZM385 371H384V372H385V371ZM385 272H485V270H385V272ZM484 271V371H486V271H484ZM485 370H385V372H485V370ZM386 371V271H384V371H386Z" fill="black"/>
<rect x="145" y="271" width="100" height="100" fill="black" fill-opacity="0.06"/>
<path d="M145 271V270H144V271H145ZM245 271H246V270H245V271ZM245 371V372H246V371H245ZM145 371H144V372H145V371ZM145 272H245V270H145V272ZM244 271V371H246V271H244ZM245 370H145V372H245V370ZM146 371V271H144V371H146Z" fill="black"/>
</svg>
